<svg xmlns="http://www.w3.org/2000/svg" viewBox="0 0 449.12799999999993 100" width="449.12799999999993" height="100">
  <path fill="#0f172a" d="M36.51 72L23.97 72L23.97 26.56L40.48 26.56L50.08 55.42L59.68 26.56L76.19 26.56L76.19 72L63.65 72L63.65 46.40L54.50 71.81L45.60 71.81L36.51 46.40L36.51 72ZM104.61 73.02L104.61 73.02Q97.44 73.02 92.26 70.14Q87.07 67.26 84.32 61.95Q81.57 56.64 81.57 49.34L81.57 49.34Q81.57 42.05 84.32 36.70Q87.07 31.36 92.26 28.45Q97.44 25.54 104.61 25.54L104.61 25.54Q111.84 25.54 116.99 28.45Q122.14 31.36 124.90 36.70Q127.65 42.05 127.65 49.34L127.65 49.34Q127.65 56.64 124.90 61.95Q122.14 67.26 116.99 70.14Q111.84 73.02 104.61 73.02ZM104.61 62.98L104.61 62.98Q109.41 62.98 112.10 59.42Q114.78 55.87 114.78 49.34L114.78 49.34Q114.78 42.82 112.10 39.20Q109.41 35.58 104.61 35.58L104.61 35.58Q99.81 35.58 97.12 39.20Q94.43 42.82 94.43 49.34L94.43 49.34Q94.43 55.87 97.12 59.42Q99.81 62.98 104.61 62.98ZM146.98 72L134.43 72L134.43 26.56L156.13 26.56Q161.25 26.56 165.06 28.22Q168.86 29.89 170.94 32.90Q173.02 35.90 173.02 40L173.02 40Q173.02 44.29 170.88 47.23Q168.74 50.18 164.83 51.39L164.83 51.39Q168.48 51.84 170.30 53.82Q172.13 55.81 172.38 59.20L172.38 59.20L173.41 72L160.61 72L159.97 61.38Q159.84 58.88 158.62 57.70Q157.41 56.51 154.34 56.51L154.34 56.51L146.98 56.51L146.98 72ZM146.98 36.61L146.98 46.46L153.82 46.46Q156.96 46.46 158.59 45.15Q160.22 43.84 160.22 41.47L160.22 41.47Q160.22 36.61 153.82 36.61L153.82 36.61L146.98 36.61ZM189.41 72L176.67 72L193.06 26.56L207.33 26.56L223.71 72L210.91 72L208.35 64.51L191.97 64.51L189.41 72ZM200.22 40.38L195.30 54.78L205.09 54.78L200.22 40.38ZM259.94 72L227.62 72L227.62 26.56L240.16 26.56L240.16 61.95L259.94 61.95L259.94 72ZM298.59 72L264.42 72L264.42 26.56L298.08 26.56L298.08 36.61L276.96 36.61L276.96 44.22L297.31 44.22L297.31 54.21L276.96 54.21L276.96 61.95L298.59 61.95L298.59 72ZM324.51 73.02L324.51 73.02Q315.10 73.02 309.92 68.64Q304.74 64.26 304.22 56.77L304.22 56.77L316.70 56.19Q317.22 59.52 319.10 61.34Q320.99 63.17 324.64 63.17L324.64 63.17Q327.52 63.17 329.09 62.18Q330.66 61.18 330.66 59.20L330.66 59.20Q330.66 57.98 330.05 57.06Q329.44 56.13 327.68 55.39Q325.92 54.66 322.46 53.95L322.46 53.95Q316.26 52.67 312.42 50.98Q308.58 49.28 306.82 46.59Q305.06 43.90 305.06 39.74L305.06 39.74Q305.06 35.52 307.23 32.32Q309.41 29.12 313.50 27.33Q317.60 25.54 323.36 25.54L323.36 25.54Q329.44 25.54 333.54 27.58Q337.63 29.63 339.90 33.22Q342.18 36.80 342.62 41.54L342.62 41.54L330.27 42.05Q330.02 38.91 328.19 37.15Q326.37 35.39 323.23 35.39L323.23 35.39Q320.54 35.39 319.07 36.48Q317.60 37.57 317.60 39.36L317.60 39.36Q317.60 41.47 319.30 42.59Q320.99 43.71 325.41 44.48L325.41 44.48Q332.13 45.63 336.03 47.62Q339.94 49.60 341.57 52.35Q343.20 55.10 343.20 58.69L343.20 58.69Q343.20 65.34 338.27 69.18Q333.34 73.02 324.51 73.02ZM372.77 72.77L372.77 72.77Q369.12 72.77 366.56 71.26Q364 69.76 362.53 67.01L362.53 67.01L362.34 72L350.24 72L350.24 26.56L362.66 26.56L362.66 42.43Q364.13 39.81 366.69 38.24Q369.25 36.67 372.77 36.67L372.77 36.67Q377.06 36.67 380.22 38.91Q383.39 41.15 385.12 45.22Q386.85 49.28 386.85 54.72L386.85 54.72Q386.85 60.16 385.12 64.22Q383.39 68.29 380.22 70.53Q377.06 72.77 372.77 72.77ZM368.54 63.87L368.54 63.87Q370.98 63.87 372.54 61.50Q374.11 59.14 374.11 54.72L374.11 54.72Q374.11 50.30 372.61 47.94Q371.10 45.57 368.54 45.57L368.54 45.57Q365.73 45.57 364.19 47.94Q362.66 50.30 362.66 54.72L362.66 54.72Q362.66 59.07 364.19 61.47Q365.73 63.87 368.54 63.87ZM407.01 72L394.34 72Q394.34 61.44 398.08 52.51Q401.82 43.58 407.65 36.61L407.65 36.61L385.70 36.61L385.70 26.56L420.13 26.56L420.13 35.97Q415.97 40.58 413.02 45.73Q410.08 50.88 408.54 57.28Q407.01 63.68 407.01 72L407.01 72Z"/>
  <rect x="424.12799999999993" y="55" width="17" height="17" fill="#059669" />
</svg>